<svg xmlns="http://www.w3.org/2000/svg" width="15.273" height="12" viewBox="0 0 15.273 12">
  <g id="envelope" transform="translate(0 -54.82)">
    <g id="Group_3" data-name="Group 3" transform="translate(0 54.82)">
      <path id="Path_2" data-name="Path 2" d="M1.466,58.519q.29.2,1.747,1.215t2.233,1.555l.362.26q.277.2.46.324t.443.277a2.572,2.572,0,0,0,.49.23,1.35,1.35,0,0,0,.426.077h.017a1.352,1.352,0,0,0,.426-.077,2.574,2.574,0,0,0,.49-.23Q8.821,62,9,61.873t.46-.324q.277-.2.362-.26l3.989-2.77a4.049,4.049,0,0,0,1.04-1.048,2.251,2.251,0,0,0,.418-1.287,1.375,1.375,0,0,0-1.364-1.364H1.364a1.217,1.217,0,0,0-1.01.443A1.72,1.72,0,0,0,0,56.371a1.991,1.991,0,0,0,.469,1.163A4.23,4.23,0,0,0,1.466,58.519Z" transform="translate(0 -54.82)" fill="#f98309"/>
      <path id="Path_3" data-name="Path 3" d="M14.42,185.178q-2.8,1.892-4.244,2.94-.486.358-.788.558a4.866,4.866,0,0,1-.805.409,2.452,2.452,0,0,1-.937.209H7.628a2.453,2.453,0,0,1-.937-.209,4.869,4.869,0,0,1-.805-.409q-.3-.2-.788-.558-1.151-.844-4.236-2.94A4.514,4.514,0,0,1,0,184.437V191.2a1.313,1.313,0,0,0,.4.963,1.313,1.313,0,0,0,.963.4H13.909a1.368,1.368,0,0,0,1.364-1.364v-6.767A4.7,4.7,0,0,1,14.42,185.178Z" transform="translate(0 -180.568)" fill="#f98309"/>
    </g>
  </g>
</svg>
