<svg id="instagram" xmlns="http://www.w3.org/2000/svg" width="12" height="12" viewBox="0 0 12 12">
  <path id="Path_7" data-name="Path 7" d="M10.242,0H1.758A1.76,1.76,0,0,0,0,1.758v8.484A1.76,1.76,0,0,0,1.758,12h8.484A1.76,1.76,0,0,0,12,10.242V1.758A1.76,1.76,0,0,0,10.242,0ZM6.023,9.141A3.164,3.164,0,1,1,9.188,5.977,3.168,3.168,0,0,1,6.023,9.141ZM9.539,3.516a1.055,1.055,0,1,1,1.055-1.055A1.056,1.056,0,0,1,9.539,3.516Zm0,0" fill="#fff"/>
  <path id="Path_8" data-name="Path 8" d="M392.352,90a.352.352,0,1,0,.352.352A.352.352,0,0,0,392.352,90Zm0,0" transform="translate(-382.813 -87.891)" fill="#fff"/>
  <path id="Path_9" data-name="Path 9" d="M154.461,150a2.461,2.461,0,1,0,2.461,2.461A2.464,2.464,0,0,0,154.461,150Zm0,0" transform="translate(-148.438 -146.484)" fill="#fff"/>
</svg>
