<svg xmlns="http://www.w3.org/2000/svg" width="12.558" height="12" viewBox="0 0 12.558 12">
  <g id="linkedin-logo" transform="translate(0 -9.558)">
    <path id="LinkedIn" d="M12.558,16.915v4.643H9.866V17.226c0-1.088-.389-1.831-1.364-1.831a1.473,1.473,0,0,0-1.381.985,1.842,1.842,0,0,0-.089.656v4.522H4.34s.036-7.337,0-8.1H7.032v1.148l-.018.026h.018v-.026a2.673,2.673,0,0,1,2.426-1.338C11.23,13.271,12.558,14.428,12.558,16.915ZM1.524,9.558a1.4,1.4,0,1,0-.036,2.8h.018a1.4,1.4,0,1,0,.018-2.8Zm-1.364,12H2.851v-8.1H.16Z" fill="#fff"/>
  </g>
</svg>
