<svg xmlns="http://www.w3.org/2000/svg" width="20.459" height="16" viewBox="0 0 20.459 16">
  <g id="tag_1_" data-name="tag (1)" transform="translate(0 -53.064)">
    <path id="Path_130" data-name="Path 130" d="M5.518,68.6a1.572,1.572,0,0,0,2.222,0L15.349,61a2.228,2.228,0,0,0,.5-.756,8,8,0,0,0,2.164.323c1.622-.008,2.159-.718,2.336-1.143s.3-1.3-.836-2.462l-.038-.038a9.1,9.1,0,0,0-2.895-1.84c-.214-.088-.429-.168-.639-.244v-.013a1.72,1.72,0,0,0-1.7-1.7l-4.558-.063a2.217,2.217,0,0,0-1.609.655L.46,61.328a1.572,1.572,0,0,0,0,2.222Zm5.865-12.817A1.3,1.3,0,0,1,13.588,56.9a9.069,9.069,0,0,0,1.735.945c.227.092.445.176.655.248l-.025-1.832.109.046a7.918,7.918,0,0,1,2.466,1.554l.025.025c.546.559.6.916.559,1.025-.143.34-1.676.643-4-.328a8.985,8.985,0,0,1-1.836-1.021c-.017.021-.038.042-.055.063a1.3,1.3,0,1,1-1.836-1.836Z" transform="translate(0)" fill="#6175b4"/>
  </g>
</svg>
